# xmcd CD database file
#
# Track frame offsets:
#	150
#	2120
#	14594
#	30765
#	47528
#	59390
#	87057
#	99516
#	110627
#	122181
#	134321
#	139579
#	142518
#	156052
#	175102
#	184532
#	196798
#	213677
#	217769
#
# Disc length: 3127 seconds
#
# Revision: 0
# Processed by: cddbd v1.5.1PL0 Copyright (c) Steve Scherf et al.
# Submitted via: CDex 1.51
#
DISCID=f20c3513
DTITLE=Sergio Paradise - VV Summer Swap 2005
DYEAR=2005
DGENRE=Jazz
TTITLE0=Clark Gassman - Very Early This Morning
TTITLE1=Barry Gott and the Blood and Fire Brass - Room
TTITLE2=Ralph Carmichael Young People - We're On Our Way
TTITLE3=Otis Skilling - A World Mixed Up
TTITLE4=Anne Shelton and the Instrumentals - God Is Angry
TTITLE5=Tedd Smith - Love and Understanding
TTITLE6=Linda Rich - The Edges Of His Ways
TTITLE7=Steve and Maria - Fanatic
TTITLE8=Sebastian Temple and Sarah Herschberg - Abraham Sent Them Away
TTITLE9=Anne Shelton and the Instrumentals - To Be Free
TTITLE10=Yesterday, Today and Tomorrow - New World
TTITLE11=Sharon Lucky - The 10 Commandments
TTITLE12=Andre Crouch and the Disciples - Satisfied
TTITLE13=Ray Ruff - The Trial
TTITLE14=The Instrumentals - Very Last Day
TTITLE15=Tedd Smith - New Vibrations
TTITLE16=Jeremiah People et al - Six Six Six
TTITLE17=Kairos - The End
TTITLE18=Nat Raider - Superstar
EXTD=YEAR: 2005
EXTT0=
EXTT1=
EXTT2=
EXTT3=
EXTT4=
EXTT5=
EXTT6=
EXTT7=
EXTT8=
EXTT9=
EXTT10=
EXTT11=
EXTT12=
EXTT13=
EXTT14=
EXTT15=
EXTT16=
EXTT17=
EXTT18=
PLAYORDER=
